<?xml version="1.0" encoding="UTF-8" standalone="no"?>
<!DOCTYPE svg PUBLIC "-//W3C//DTD SVG 1.1//EN" "http://www.w3.org/Graphics/SVG/1.1/DTD/svg11.dtd">
<svg width="100%" height="100%" viewBox="0 0 300 300" version="1.1" xmlns="http://www.w3.org/2000/svg" xmlns:xlink="http://www.w3.org/1999/xlink" xml:space="preserve" xmlns:serif="http://www.serif.com/" style="fill-rule:evenodd;clip-rule:evenodd;">
    <g transform="matrix(2,0,0,2,-701,-165)">
        <g>
            <g transform="matrix(1,0,0,1,138.3,8.23)">
                <path d="M271.17,118.22C271.105,118.33 270.987,118.397 270.86,118.397C270.733,118.397 270.615,118.33 270.55,118.22C265.53,109.8 255.15,108.63 247.24,113.93C242.01,117.43 240.61,123.72 240.64,130.72C240.68,139.34 240.683,151.79 240.65,168.07C240.65,168.267 240.813,168.43 241.01,168.43L257.44,168.43C257.659,168.43 257.84,168.249 257.84,168.03L257.85,130.24C257.85,128.985 258.776,127.906 260.02,127.71L260.06,127.7C260.115,127.69 260.171,127.682 260.227,127.677C261.233,127.588 262.134,128.337 262.223,129.336C262.228,129.394 262.23,129.452 262.23,129.51L262.21,168.02C262.21,168.245 262.395,168.43 262.62,168.43L279.07,168.43C279.235,168.43 279.37,168.295 279.37,168.13L279.39,130C279.392,128.786 280.344,127.769 281.55,127.69L281.59,127.69C281.64,127.686 281.69,127.684 281.74,127.684C282.836,127.684 283.738,128.584 283.74,129.68L283.74,179C283.74,179.363 283.808,179.72 283.94,180.05C285.71,184.53 289.03,185.26 293.98,185.26C307.8,185.287 315.467,185.247 316.98,185.14C323.36,184.7 329.63,182.56 332.15,176.63C334.58,170.93 334.22,162.91 329.4,158.34C328.7,157.673 327.703,156.783 326.41,155.67C326.298,155.577 326.233,155.439 326.233,155.293C326.233,155.126 326.319,154.97 326.46,154.88C337.26,147.91 335.4,132.58 324.44,127.19C319.1,124.56 310.15,125.73 305,125.59C304.993,125.59 304.987,125.59 304.98,125.59C304.629,125.59 304.34,125.879 304.34,126.23C304.34,126.23 304.34,141.93 304.34,141.93C304.34,142.248 304.597,142.51 304.91,142.51L314.01,142.51C315.205,142.515 316.252,143.334 316.54,144.49L316.57,144.58C316.624,144.748 316.652,144.924 316.652,145.1C316.652,146.026 315.896,146.79 314.97,146.8L304.86,146.87C304.575,146.87 304.34,147.105 304.34,147.39L304.34,163.24C304.34,163.58 304.62,163.86 304.96,163.86L313.98,163.86C315.274,163.866 316.387,164.808 316.6,166.08L316.61,166.14C316.624,166.229 316.63,166.32 316.63,166.41C316.63,167.385 315.835,168.189 314.86,168.2L301.08,168.32C300.899,168.32 300.75,168.171 300.75,167.99C300.683,149.023 300.687,137.357 300.76,132.99C300.873,126.93 300.423,122.65 299.41,120.15C296.717,113.49 291.45,110.377 283.61,110.81C278.16,111.11 273.83,113.65 271.17,118.22" style="fill:none;fill-rule:nonzero;stroke:rgb(136,136,136);stroke-width:2px;"/>
            </g>
            <g transform="matrix(1,0,0,1,138.3,8.23)">
                <path d="M355.189,148.914C355.189,148.914 355.189,148.914 355.189,148.914C355.384,186.086 324.853,216.834 287.555,217.029C287.555,217.029 287.555,217.029 287.555,217.029C250.257,217.224 219.406,186.798 219.211,149.626C219.211,149.626 219.211,149.626 219.211,149.626C219.016,112.454 249.547,81.706 286.845,81.511C286.845,81.511 286.845,81.511 286.845,81.511C324.143,81.316 354.994,111.742 355.189,148.914ZM271.17,118.22C271.105,118.33 270.987,118.397 270.86,118.397C270.733,118.397 270.615,118.33 270.55,118.22C265.53,109.8 255.15,108.63 247.24,113.93C242.01,117.43 240.61,123.72 240.64,130.72C240.68,139.34 240.683,151.79 240.65,168.07C240.65,168.267 240.813,168.43 241.01,168.43L257.44,168.43C257.659,168.43 257.84,168.249 257.84,168.03L257.85,130.24C257.85,128.985 258.776,127.906 260.02,127.71L260.06,127.7C260.115,127.69 260.171,127.682 260.227,127.677C261.233,127.588 262.134,128.337 262.223,129.336C262.228,129.394 262.23,129.452 262.23,129.51L262.21,168.02C262.21,168.245 262.395,168.43 262.62,168.43L279.07,168.43C279.235,168.43 279.37,168.295 279.37,168.13L279.39,130C279.392,128.786 280.344,127.769 281.55,127.69L281.59,127.69C281.64,127.686 281.69,127.684 281.74,127.684C282.836,127.684 283.738,128.584 283.74,129.68L283.74,179C283.74,179.363 283.808,179.72 283.94,180.05C285.71,184.53 289.03,185.26 293.98,185.26C307.8,185.287 315.467,185.247 316.98,185.14C323.36,184.7 329.63,182.56 332.15,176.63C334.58,170.93 334.22,162.91 329.4,158.34C328.7,157.673 327.703,156.783 326.41,155.67C326.298,155.577 326.233,155.439 326.233,155.293C326.233,155.126 326.319,154.97 326.46,154.88C337.26,147.91 335.4,132.58 324.44,127.19C319.1,124.56 310.15,125.73 305,125.59C304.993,125.59 304.987,125.59 304.98,125.59C304.629,125.59 304.34,125.879 304.34,126.23C304.34,126.23 304.34,141.93 304.34,141.93C304.34,142.248 304.597,142.51 304.91,142.51L314.01,142.51C315.205,142.515 316.252,143.334 316.54,144.49L316.57,144.58C316.624,144.748 316.652,144.924 316.652,145.1C316.652,146.026 315.896,146.79 314.97,146.8L304.86,146.87C304.575,146.87 304.34,147.105 304.34,147.39L304.34,163.24C304.34,163.58 304.62,163.86 304.96,163.86L313.98,163.86C315.274,163.866 316.387,164.808 316.6,166.08L316.61,166.14C316.624,166.229 316.63,166.32 316.63,166.41C316.63,167.385 315.835,168.189 314.86,168.2L301.08,168.32C300.899,168.32 300.75,168.171 300.75,167.99C300.683,149.023 300.687,137.357 300.76,132.99C300.873,126.93 300.423,122.65 299.41,120.15C296.717,113.49 291.45,110.377 283.61,110.81C278.16,111.11 273.83,113.65 271.17,118.22Z" style="fill:white;fill-rule:nonzero;"/>
            </g>
            <g transform="matrix(1,0,0,1,138.3,8.23)">
                <path d="M271.17,118.22C273.83,113.65 278.16,111.11 283.61,110.81C291.45,110.377 296.717,113.49 299.41,120.15C300.423,122.65 300.873,126.93 300.76,132.99C300.687,137.357 300.683,149.023 300.75,167.99C300.75,168.171 300.899,168.32 301.08,168.32L314.86,168.2C315.835,168.189 316.63,167.385 316.63,166.41C316.63,166.32 316.624,166.229 316.61,166.14L316.6,166.08C316.387,164.808 315.274,163.866 313.98,163.86L304.96,163.86C304.62,163.86 304.34,163.58 304.34,163.24L304.34,147.39C304.34,147.105 304.575,146.87 304.86,146.87L314.97,146.8C315.896,146.79 316.652,146.026 316.652,145.1C316.652,144.924 316.624,144.748 316.57,144.58L316.54,144.49C316.252,143.334 315.205,142.515 314.01,142.51L304.91,142.51C304.597,142.51 304.34,142.248 304.34,141.93C304.34,141.93 304.34,126.23 304.34,126.23C304.34,125.879 304.629,125.59 304.98,125.59C304.987,125.59 304.993,125.59 305,125.59C310.15,125.73 319.1,124.56 324.44,127.19C335.4,132.58 337.26,147.91 326.46,154.88C326.319,154.97 326.233,155.126 326.233,155.293C326.233,155.439 326.298,155.577 326.41,155.67C327.703,156.783 328.7,157.673 329.4,158.34C334.22,162.91 334.58,170.93 332.15,176.63C329.63,182.56 323.36,184.7 316.98,185.14C315.467,185.247 307.8,185.287 293.98,185.26C289.03,185.26 285.71,184.53 283.94,180.05C283.808,179.72 283.74,179.363 283.74,179L283.74,129.68C283.738,128.584 282.836,127.684 281.74,127.684C281.69,127.684 281.64,127.686 281.59,127.69L281.55,127.69C280.344,127.769 279.392,128.786 279.39,130L279.37,168.13C279.37,168.295 279.235,168.43 279.07,168.43L262.62,168.43C262.395,168.43 262.21,168.245 262.21,168.02L262.23,129.51C262.23,129.452 262.228,129.394 262.223,129.336C262.134,128.337 261.233,127.588 260.227,127.677C260.171,127.682 260.115,127.69 260.06,127.7L260.02,127.71C258.776,127.906 257.85,128.985 257.85,130.24L257.84,168.03C257.84,168.249 257.659,168.43 257.44,168.43L241.01,168.43C240.813,168.43 240.65,168.267 240.65,168.07C240.683,151.79 240.68,139.34 240.64,130.72C240.61,123.72 242.01,117.43 247.24,113.93C255.15,108.63 265.53,109.8 270.55,118.22C270.615,118.33 270.733,118.397 270.86,118.397C270.987,118.397 271.105,118.33 271.17,118.22Z" style="fill:rgb(18,31,40);fill-rule:nonzero;"/>
            </g>
        </g>
    </g>
</svg>
